[IMG]http://img714.imageshack.us/img714/7392/sdrbenner5.jpg[/IMG]

[IMG]http://megarelease.net/wp-content/uploads/2010/03/cliffhangerblurayart.jpg[/IMG]

[IMG]http://www.composites.ugent.be/home_made_composites/pictures/dvd-icon.jpg[/IMG]


[IMG]http://myph.us/pics/64623_8we5inyn.png[/IMG]
General
Complete name                    : Cliffhanger (1993)DvDrip{Dual audio}[Eng Hindi]Current_HD
Format                           : AVI
Format/Info                      : Audio Video Interleave
Format profile                   : OpenDML
File size                        : 797 MiB
Duration                         : 1h 48mn
Overall bit rate                 : 1 030 Kbps
Writing application              : AVI-Mux GUI 1.17.8.3, Feb 16 201019:42:50

Video
ID                               : 0
Format                           : MPEG-4 Visual
Format settings, BVOP            : Yes
Format settings, QPel            : No
Format settings, GMC             : No warppoints
Format settings, Matrix          : Default (H.263)
Muxing mode                      : Packed bitstream
Codec ID                         : DX50
Codec ID/Hint                    : DivX 5
Duration                         : 1h 48mn
Bit rate                         : 780 Kbps
Width                            : 700 pixels
Height                           : 298 pixels
Display aspect ratio             : 2.35:1
Frame rate                       : 25.000 fps
Color space                      : YUV
Chroma subsampling               : 4:2:0
Bit depth                        : 8 bits
Scan type                        : Progressive
Bits/(Pixel*Frame)               : 0.150
Stream size                      : 603 MiB (76%)
Writing library                  : DivX 5.0.3 (UTC 2003-01-24)

Audio #1
ID                               : 1
Format                           : MPEG Audio
Format version                   : Version 1
Format profile                   : Layer 3
Mode                             : Joint stereo
Mode extension                   : MS Stereo
Codec ID                         : 55
Codec ID/Hint                    : MP3
Duration                         : 1h 48mn
Bit rate mode                    : Constant
Bit rate                         : 128 Kbps
Channel(s)                       : 2 channels
Sampling rate                    : 48.0 KHz
Stream size                      : 98.9 MiB (12%)
Alignment                        : Aligned on interleaves
Interleave, duration             : 809 ms (20.22 video frames)
Interleave, preload duration     : 216 ms

Audio #2
ID                               : 2
Format                           : MPEG Audio
Format version                   : Version 1
Format profile                   : Layer 3
Mode                             : Joint stereo
Codec ID                         : 55
Codec ID/Hint                    : MP3
Duration                         : 1h 40mn
Bit rate mode                    : Constant
Bit rate                         : 128 Kbps
Channel(s)                       : 2 channels
Sampling rate                    : 48.0 KHz
Stream size                      : 92.0 MiB (12%)
Alignment                        : Aligned on interleaves
Interleave, duration             : 870 ms (21.75 video frames)
Interleave, preload duration     : 216 ms
Title                            : CurrentHD

[IMG]http://img99.imageshack.us/img99/2379/67869504.jpg[/IMG]
[IMG]http://img139.imageshack.us/img139/3262/56613461.jpg[/IMG]
[IMG]http://img59.imageshack.us/img59/2346/82474958.jpg[/IMG]
[IMG]http://img190.imageshack.us/img190/3668/80830574.jpg[/IMG]
[IMG]http://img100.imageshack.us/img100/5408/75918897.jpg[/IMG]
[IMG]http://img839.imageshack.us/img839/7503/77581563.jpg[/IMG]
[IMG]http://img72.imageshack.us/img72/7999/99461621.jpg[/IMG]

